HIERARCHY
ROOT hips
{
	OFFSET -0.003675 0.299928 -0.021708
	CHANNELS 6 Xposition Yposition Zposition Xrotation Yrotation Zrotation
	JOINT LowerBack
	{
		OFFSET 0.000919 0.177588 0.009275
		CHANNELS 3 Xrotation Yrotation Zrotation
		JOINT spine
		{
			OFFSET 0.000919 0.177588 0.009275
			CHANNELS 3 Xrotation Yrotation Zrotation
			JOINT chest
			{
				OFFSET 0.000456 0.100015 0.004638
				CHANNELS 3 Xrotation Yrotation Zrotation
				JOINT neck
				{
					OFFSET 0.000456 0.100015 0.004638
					CHANNELS 3 Xrotation Yrotation Zrotation
					JOINT head
					{
						OFFSET 0.000924 0.155147 0.009274
						CHANNELS 6 Xposition Yposition Zposition Xrotation Yrotation Zrotation
						End Site
						{
							OFFSET 0.000000 0.153400 0.000000
						}
					}
				}
				JOINT shoulder.L
				{
					OFFSET 0.019937 0.078966 0.057518
					CHANNELS 6 Xposition Yposition Zposition Yrotation Xrotation Zrotation
					JOINT upper_arm.L
					{
						OFFSET 0.177024 -0.020465 -0.095062
						CHANNELS 6 Xposition Yposition Zposition Xrotation Yrotation Zrotation
						JOINT forearm.L
						{
							OFFSET 0.247100 -0.135500 -0.061800
							CHANNELS 3 Xrotation Yrotation Zrotation
							JOINT hand.L
							{
								OFFSET 0.217000 -0.143000 0.039300
								CHANNELS 3 Xrotation Yrotation Zrotation
								JOINT palm.01.L
								{
									OFFSET 0.021770 -0.038291 0.012954
									CHANNELS 6 Xposition Yposition Zposition Yrotation Xrotation Zrotation
									JOINT f_index.01.L
									{
										OFFSET 0.053215 -0.044137 0.008236
										CHANNELS 3 Xrotation Yrotation Zrotation
										JOINT f_index.02.L
										{
											OFFSET 0.036108 -0.024723 -0.010656
											CHANNELS 3 Xrotation Yrotation Zrotation
											JOINT f_index.03.L
											{
												OFFSET 0.021342 -0.014948 -0.010846
												CHANNELS 3 Xrotation Yrotation Zrotation
												End Site
												{
													OFFSET 0.015600 -0.009860 -0.013421
												}
											}
										}
									}
									JOINT thumb.01.L
									{
										OFFSET -0.009090 -0.002348 -0.024223
										CHANNELS 6 Xposition Yposition Zposition Xrotation Yrotation Zrotation
										JOINT thumb.02.L
										{
											OFFSET 0.019713 -0.035076 -0.011120
											CHANNELS 3 Xrotation Yrotation Zrotation
											JOINT thumb.03.L
											{
												OFFSET 0.024877 -0.021748 -0.005176
												CHANNELS 3 Xrotation Yrotation Zrotation
												End Site
												{
													OFFSET 0.016125 -0.013029 -0.001569
												}
											}
										}
									}
								}
								JOINT palm.02.L
								{
									OFFSET 0.032823 -0.025104 0.012281
									CHANNELS 6 Xposition Yposition Zposition Yrotation Xrotation Zrotation
									JOINT f_middle.01.L
									{
										OFFSET 0.055723 -0.038469 0.008037
										CHANNELS 3 Xrotation Yrotation Zrotation
										JOINT f_middle.02.L
										{
											OFFSET 0.038167 -0.027473 -0.015582
											CHANNELS 3 Xrotation Yrotation Zrotation
											JOINT f_middle.03.L
											{
												OFFSET 0.021707 -0.016587 -0.017037
												CHANNELS 3 Xrotation Yrotation Zrotation
												End Site
												{
													OFFSET 0.014112 -0.010584 -0.014294
												}
											}
										}
									}
								}
								JOINT palm.03.L
								{
									OFFSET 0.039230 -0.011402 0.008390
									CHANNELS 6 Xposition Yposition Zposition Yrotation Xrotation Zrotation
									JOINT f_ring.01.L
									{
										OFFSET 0.061796 -0.031470 0.007910
										CHANNELS 3 Xrotation Yrotation Zrotation
										JOINT f_ring.02.L
										{
											OFFSET 0.033092 -0.023401 -0.019127
											CHANNELS 3 Xrotation Yrotation Zrotation
											JOINT f_ring.03.L
											{
												OFFSET 0.021392 -0.015362 -0.017824
												CHANNELS 3 Xrotation Yrotation Zrotation
												End Site
												{
													OFFSET 0.008670 -0.007297 -0.014686
												}
											}
										}
									}
								}
								JOINT palm.04.L
								{
									OFFSET 0.043417 0.002450 0.002889
									CHANNELS 6 Xposition Yposition Zposition Yrotation Xrotation Zrotation
									JOINT f_pinky.01.L
									{
										OFFSET 0.069986 -0.026156 0.003627
										CHANNELS 3 Xrotation Yrotation Zrotation
										JOINT f_pinky.02.L
										{
											OFFSET 0.018520 -0.012813 -0.016429
											CHANNELS 3 Xrotation Yrotation Zrotation
											JOINT f_pinky.03.L
											{
												OFFSET 0.013822 -0.009796 -0.014947
												CHANNELS 3 Xrotation Yrotation Zrotation
												End Site
												{
													OFFSET 0.007238 -0.006103 -0.011657
												}
											}
										}
									}
								}
							}
						}
					}
				}
				JOINT shoulder.R
				{
					OFFSET -0.016662 0.078957 0.057696
					CHANNELS 6 Xposition Yposition Zposition Yrotation Xrotation Zrotation
					JOINT upper_arm.R
					{
						OFFSET -0.176972 -0.020537 -0.095144
						CHANNELS 6 Xposition Yposition Zposition Xrotation Yrotation Zrotation
						JOINT forearm.R
						{
							OFFSET -0.247100 -0.135500 -0.061800
							CHANNELS 3 Xrotation Yrotation Zrotation
							JOINT hand.R
							{
								OFFSET -0.217000 -0.143000 0.039300
								CHANNELS 3 Xrotation Yrotation Zrotation
								JOINT palm.01.R
								{
									OFFSET -0.021773 -0.038278 0.012988
									CHANNELS 6 Xposition Yposition Zposition Yrotation Xrotation Zrotation
									JOINT f_index.01.R
									{
										OFFSET -0.053212 -0.044139 0.008249
										CHANNELS 3 Xrotation Yrotation Zrotation
										JOINT f_index.02.R
										{
											OFFSET -0.036049 -0.024835 -0.010634
											CHANNELS 3 Xrotation Yrotation Zrotation
											JOINT f_index.03.R
											{
												OFFSET -0.021371 -0.014881 -0.010866
												CHANNELS 3 Xrotation Yrotation Zrotation
												End Site
												{
													OFFSET -0.015584 -0.009883 -0.013422
												}
											}
										}
									}
									JOINT thumb.01.R
									{
										OFFSET 0.009113 -0.002381 -0.024211
										CHANNELS 6 Xposition Yposition Zposition Xrotation Yrotation Zrotation
										JOINT thumb.02.R
										{
											OFFSET -0.019694 -0.035097 -0.011088
											CHANNELS 3 Xrotation Yrotation Zrotation
											JOINT thumb.03.R
											{
												OFFSET -0.024867 -0.021762 -0.005168
												CHANNELS 3 Xrotation Yrotation Zrotation
												End Site
												{
													OFFSET -0.016120 -0.013036 -0.001565
												}
											}
										}
									}
								}
								JOINT palm.02.R
								{
									OFFSET -0.032828 -0.025095 0.012286
									CHANNELS 6 Xposition Yposition Zposition Yrotation Xrotation Zrotation
									JOINT f_middle.01.R
									{
										OFFSET -0.055721 -0.038472 0.008040
										CHANNELS 3 Xrotation Yrotation Zrotation
										JOINT f_middle.02.R
										{
											OFFSET -0.038101 -0.027593 -0.015557
											CHANNELS 3 Xrotation Yrotation Zrotation
											JOINT f_middle.03.R
											{
												OFFSET -0.021730 -0.016530 -0.017054
												CHANNELS 3 Xrotation Yrotation Zrotation
												End Site
												{
													OFFSET -0.014096 -0.010608 -0.014293
												}
											}
										}
									}
								}
								JOINT palm.03.R
								{
									OFFSET -0.039192 -0.011488 0.008390
									CHANNELS 6 Xposition Yposition Zposition Yrotation Xrotation Zrotation
									JOINT f_ring.01.R
									{
										OFFSET -0.061839 -0.031387 0.007876
										CHANNELS 3 Xrotation Yrotation Zrotation
										JOINT f_ring.02.R
										{
											OFFSET -0.033068 -0.023437 -0.019125
											CHANNELS 3 Xrotation Yrotation Zrotation
											JOINT f_ring.03.R
											{
												OFFSET -0.021371 -0.015393 -0.017822
												CHANNELS 3 Xrotation Yrotation Zrotation
												End Site
												{
													OFFSET -0.008654 -0.007321 -0.014684
												}
											}
										}
									}
								}
								JOINT palm.04.R
								{
									OFFSET -0.043421 0.002443 0.002845
									CHANNELS 6 Xposition Yposition Zposition Yrotation Xrotation Zrotation
									JOINT f_pinky.01.R
									{
										OFFSET -0.069983 -0.026169 0.003599
										CHANNELS 3 Xrotation Yrotation Zrotation
										JOINT f_pinky.02.R
										{
											OFFSET -0.018501 -0.012842 -0.016428
											CHANNELS 3 Xrotation Yrotation Zrotation
											JOINT f_pinky.03.R
											{
												OFFSET -0.013806 -0.009821 -0.014946
												CHANNELS 3 Xrotation Yrotation Zrotation
												End Site
												{
													OFFSET -0.007226 -0.006121 -0.011655
												}
											}
										}
									}
								}
							}
						}
					}
				}
			}
		}
	}
	JOINT pelvis.L
	{
		OFFSET 0.000000 0.000000 0.000000
		CHANNELS 6 Xposition Yposition Zposition Xrotation Yrotation Zrotation
		JOINT thigh.L
		{
			OFFSET 0.101675 0.001054 -0.000000
			CHANNELS 3 Xrotation Yrotation Zrotation
			JOINT shin.L
			{
				OFFSET 0.000000 -0.534800 0.041000
				CHANNELS 3 Xrotation Yrotation Zrotation
				JOINT foot.L
				{
					OFFSET 0.000000 -0.452000 -0.044800
					CHANNELS 3 Xrotation Yrotation Zrotation
					JOINT toe.L
					{
						OFFSET -0.000000 -0.068500 0.109600
						CHANNELS 3 Xrotation Yrotation Zrotation
						End Site
						{
							OFFSET -0.000000 0.000000 0.067200
						}
					}
				}
				JOINT heel.L
				{
					OFFSET 0.000000 -0.452000 -0.044800
					CHANNELS 3 Xrotation Yrotation Zrotation
					JOINT heel.02.L
					{
						OFFSET -0.038000 -0.085200 0.016200
						CHANNELS 6 Xposition Yposition Zposition Xrotation Yrotation Zrotation
						End Site
						{
							OFFSET 0.080000 -0.000000 0.000000
						}
					}
				}
			}
		}
	}
	JOINT pelvis.R
	{
		OFFSET 0.000000 0.000000 0.000000
		CHANNELS 6 Xposition Yposition Zposition Xrotation Yrotation Zrotation
		JOINT thigh.R
		{
			OFFSET -0.094325 0.001054 0.000000
			CHANNELS 3 Xrotation Yrotation Zrotation
			JOINT shin.R
			{
				OFFSET 0.000000 -0.534800 0.041000
				CHANNELS 3 Xrotation Yrotation Zrotation
				JOINT foot.R
				{
					OFFSET 0.000000 -0.452000 -0.044800
					CHANNELS 3 Xrotation Yrotation Zrotation
					JOINT toe.R
					{
						OFFSET -0.000000 -0.068500 0.109600
						CHANNELS 3 Xrotation Yrotation Zrotation
						End Site
						{
							OFFSET -0.000000 0.000000 0.067200
						}
					}
				}
				JOINT heel.R
				{
					OFFSET 0.000000 -0.452000 -0.044800
					CHANNELS 3 Xrotation Yrotation Zrotation
					JOINT heel.02.R
					{
						OFFSET 0.038000 -0.085200 0.016200
						CHANNELS 6 Xposition Yposition Zposition Xrotation Yrotation Zrotation
						End Site
						{
							OFFSET -0.080000 0.000000 -0.000000
						}
					}
				}
			}
		}
	}
}
MOTION
Frames: 4
Frame Time: 0.041667
0.006303 0.205121 0.006093 24.561842 6.683082 84.565481 -0.000001 -0.000001 -0.000000 -0.000000 -0.000001 -0.000000 -0.000002 -0.000001 0.000001 0.000001 -0.000001 -0.000000 0.000924 0.155148 0.009274 16.094649 -0.058032 -27.532815 0.019937 0.078966 0.057518 5.663326 5.156917 42.144907 0.177024 -0.020465 -0.095062 -15.814289 -9.742837 -4.471076 32.909494 -21.647130 90.206684 -0.000003 -0.000002 -0.000002 0.021770 -0.038291 0.012954 -0.000000 -0.000003 0.000005 0.000003 0.000001 0.000003 -0.000002 0.000001 0.000003 0.000003 0.000003 -0.000003 -0.009090 -0.002348 -0.024223 0.000004 0.000002 0.000003 -0.000003 -0.000000 0.000008 0.000001 0.000001 -0.000002 0.032823 -0.025104 0.012281 -0.000001 0.000002 0.000009 -0.000000 0.000003 -0.000003 -0.000004 -0.000001 0.000003 -0.000000 -0.000003 0.000000 0.039230 -0.011402 0.008390 0.000002 0.000000 0.000001 -0.000002 -0.000000 -0.000000 -0.000002 0.000000 -0.000002 0.000001 -0.000005 0.000003 0.043417 0.002450 0.002889 -0.000001 -0.000002 -0.000003 -0.000000 -0.000004 0.000003 -0.000002 0.000005 0.000003 -0.000001 -0.000004 0.000001 -0.016662 0.078957 0.057696 -9.048507 5.183660 -39.086905 -0.176972 -0.020537 -0.095144 -13.001981 -8.706016 32.865443 19.188858 -26.544898 -144.168327 0.000001 -0.000001 -0.000005 -0.021773 -0.038278 0.012988 0.000001 0.000000 0.000000 -0.000002 0.000003 -0.000003 -0.000004 0.000001 -0.000003 -0.000002 0.000002 0.000004 0.009114 -0.002381 -0.024211 -0.000000 -0.000005 -0.000001 -0.000001 -0.000005 0.000002 0.000000 0.000000 -0.000004 -0.032828 -0.025095 0.012286 0.000001 0.000004 -0.000008 -0.000003 0.000001 0.000002 0.000004 0.000007 0.000000 -0.000004 0.000002 -0.000009 -0.039192 -0.011488 0.008390 -0.000003 0.000006 0.000003 -0.000005 0.000002 0.000002 -0.000002 -0.000001 0.000003 -0.000005 0.000005 0.000001 -0.043421 0.002443 0.002845 -0.000000 0.000005 0.000002 -0.000007 0.000006 -0.000006 -0.000004 -0.000002 -0.000002 0.000001 0.000003 -0.000000 0.000000 0.000000 -0.000000 -1.999166 0.686003 -8.780539 77.203274 -0.840820 -14.304971 -26.833346 -0.077363 0.782654 0.000000 -0.000001 -0.000000 0.000002 -0.000000 0.000000 0.000002 0.000000 0.000001 -0.038000 -0.085200 0.016200 0.000002 -0.000002 -0.000001 0.000000 0.000000 -0.000000 -1.932325 0.676389 -7.547148 72.062546 -0.392509 -1.326481 -20.405728 1.062224 -10.781502 0.000000 -0.000001 -0.000000 0.000004 -0.000000 -0.000000 0.000007 0.000000 0.000003 0.038000 -0.085200 0.016200 0.000002 0.000000 -0.000000 
0.006432 0.206452 0.007649 20.289161 6.098974 85.679737 0.000001 0.000002 0.000000 0.000000 0.000000 0.000001 0.000001 0.000000 -0.000000 0.000002 -0.000000 -0.000000 0.000924 0.155147 0.009274 17.125518 -0.052479 -24.607097 0.019937 0.078966 0.057518 -1.097368 3.950507 41.029243 0.177024 -0.020465 -0.095062 -18.643018 -8.995272 -8.717969 37.252552 -19.799004 95.383025 -0.000000 -0.000001 -0.000002 0.021770 -0.038291 0.012954 -0.000001 0.000001 -0.000001 0.000001 -0.000006 -0.000004 -0.000000 -0.000002 0.000010 -0.000001 0.000000 -0.000001 -0.009090 -0.002348 -0.024223 -0.000000 -0.000009 -0.000003 0.000001 0.000000 0.000003 -0.000005 0.000003 -0.000002 0.032823 -0.025104 0.012281 -0.000000 0.000000 0.000002 0.000002 0.000005 0.000000 -0.000000 -0.000003 0.000003 0.000001 0.000002 -0.000000 0.039230 -0.011402 0.008390 -0.000004 0.000003 0.000001 -0.000001 0.000004 0.000001 0.000001 0.000001 -0.000001 -0.000000 -0.000003 0.000005 0.043417 0.002450 0.002889 -0.000002 -0.000003 -0.000003 -0.000001 0.000002 -0.000004 0.000001 0.000002 0.000000 0.000003 -0.000002 -0.000002 -0.016662 0.078957 0.057696 -12.115129 4.538671 -34.623117 -0.176972 -0.020537 -0.095144 -10.965561 -8.830968 30.637640 12.556736 -30.429452 -155.488983 -0.000001 0.000002 0.000002 -0.021773 -0.038278 0.012988 -0.000000 -0.000000 -0.000005 -0.000000 0.000005 -0.000006 -0.000001 -0.000002 -0.000003 -0.000003 0.000000 0.000001 0.009113 -0.002381 -0.024211 -0.000000 0.000002 -0.000001 -0.000003 -0.000002 -0.000001 -0.000000 -0.000004 -0.000003 -0.032828 -0.025095 0.012286 0.000002 -0.000002 -0.000001 -0.000001 0.000005 0.000004 0.000004 0.000003 -0.000000 0.000000 0.000003 -0.000006 -0.039192 -0.011488 0.008390 -0.000003 0.000002 -0.000002 0.000002 0.000004 -0.000002 -0.000003 0.000003 -0.000005 -0.000005 0.000003 0.000003 -0.043421 0.002443 0.002845 0.000000 -0.000001 0.000000 -0.000004 0.000007 -0.000001 -0.000001 -0.000003 0.000000 0.000000 0.000000 -0.000001 0.000000 0.000000 -0.000000 -2.045764 0.479807 -6.399956 78.444647 -0.754283 -13.189260 -27.046200 -0.087130 0.881208 -0.000003 0.000000 -0.000000 -0.000000 0.000001 -0.000000 -0.000003 0.000001 -0.000000 -0.038000 -0.085200 0.016200 0.000000 0.000001 -0.000001 0.000000 0.000000 -0.000000 -1.985065 0.473639 -5.166274 75.600229 -0.326852 -0.355329 -23.923098 0.888113 -8.997732 0.000000 -0.000001 0.000000 -0.000001 0.000001 0.000001 0.000010 -0.000001 -0.000000 0.038000 -0.085200 0.016200 0.000001 0.000000 -0.000002 
0.006562 0.206963 0.008018 17.643456 6.832060 85.821969 0.000001 0.000001 -0.000000 0.000000 0.000001 -0.000000 -0.000001 0.000001 -0.000000 -0.000000 0.000000 -0.000000 0.000924 0.155147 0.009274 15.423670 -0.046438 -22.513955 0.019937 0.078966 0.057518 -3.481833 3.442073 40.687509 0.177024 -0.020465 -0.095062 -16.455703 -9.700135 -4.604535 29.199305 -22.957669 85.141416 -0.000001 -0.000002 -0.000004 0.021770 -0.038291 0.012954 -0.000000 -0.000001 -0.000002 -0.000002 0.000000 0.000006 0.000000 0.000001 0.000001 0.000002 0.000003 -0.000000 -0.009090 -0.002348 -0.024224 -0.000002 -0.000004 0.000002 -0.000001 -0.000001 0.000005 -0.000001 -0.000001 0.000001 0.032823 -0.025104 0.012281 0.000001 0.000002 -0.000001 -0.000007 0.000003 -0.000007 -0.000009 -0.000001 0.000003 0.000001 0.000001 0.000001 0.039230 -0.011402 0.008390 0.000002 -0.000000 0.000006 -0.000002 0.000002 -0.000005 -0.000000 0.000003 0.000001 0.000001 -0.000000 0.000003 0.043417 0.002450 0.002889 -0.000001 0.000003 0.000002 0.000005 0.000000 -0.000004 -0.000002 0.000002 0.000000 0.000001 -0.000003 -0.000000 -0.016662 0.078957 0.057696 -14.094899 4.569065 -33.906056 -0.176972 -0.020537 -0.095144 -11.384783 -6.732207 23.858848 8.793020 -27.249193 -154.440467 0.000001 -0.000003 0.000001 -0.021773 -0.038278 0.012988 0.000003 -0.000005 0.000000 -0.000003 0.000006 0.000006 -0.000001 -0.000004 0.000000 -0.000001 -0.000004 -0.000003 0.009114 -0.002381 -0.024211 -0.000003 -0.000003 0.000002 -0.000001 -0.000005 -0.000002 -0.000001 -0.000000 -0.000001 -0.032828 -0.025095 0.012286 0.000003 -0.000002 -0.000003 -0.000000 -0.000003 0.000002 -0.000003 0.000002 -0.000001 0.000002 0.000003 -0.000002 -0.039192 -0.011488 0.008390 0.000002 -0.000002 -0.000002 0.000003 0.000005 0.000000 0.000002 -0.000004 0.000002 -0.000005 0.000002 -0.000002 -0.043421 0.002443 0.002845 0.000003 -0.000002 -0.000005 -0.000004 0.000002 -0.000001 -0.000002 -0.000003 0.000002 -0.000004 -0.000001 -0.000000 0.000000 0.000000 0.000000 -2.089099 0.343416 -4.827593 77.149821 -0.687135 -12.278739 -26.056600 -0.220093 2.223178 0.000000 -0.000001 -0.000001 0.000000 0.000000 0.000001 0.000005 -0.000001 -0.000001 -0.038000 -0.085200 0.016200 0.000000 -0.000001 -0.000001 0.000000 0.000000 0.000000 -2.032188 0.339204 -3.593743 76.463066 -0.229072 0.950717 -25.622686 0.930627 -9.432320 0.000000 0.000001 -0.000000 0.000004 0.000000 0.000000 0.000005 0.000000 -0.000001 0.038000 -0.085200 0.016200 0.000001 -0.000000 -0.000001 
0.005921 0.207163 0.007867 17.591133 7.523782 86.894971 -0.000001 0.000000 0.000000 -0.000001 -0.000001 -0.000000 0.000001 -0.000001 0.000000 -0.000000 0.000000 0.000000 0.000924 0.155148 0.009274 17.452969 -0.047648 -21.971223 0.019937 0.078966 0.057518 0.012869 3.771864 41.204694 0.177024 -0.020465 -0.095062 -10.547119 -11.008374 5.352716 20.061664 -26.826355 71.225069 -0.000003 0.000004 -0.000001 0.021770 -0.038291 0.012954 0.000000 -0.000000 -0.000004 -0.000004 -0.000003 -0.000001 -0.000004 0.000001 0.000005 -0.000003 0.000005 0.000001 -0.009090 -0.002348 -0.024223 -0.000002 -0.000003 -0.000002 -0.000005 0.000003 0.000001 -0.000000 0.000000 0.000001 0.032823 -0.025104 0.012281 -0.000000 -0.000002 -0.000001 0.000002 0.000001 -0.000003 0.000001 0.000000 0.000001 -0.000001 0.000000 -0.000001 0.039230 -0.011402 0.008390 -0.000001 -0.000000 -0.000001 -0.000005 0.000002 -0.000000 -0.000001 0.000007 -0.000004 0.000003 -0.000004 0.000003 0.043417 0.002450 0.002889 0.000001 0.000000 -0.000003 0.000001 -0.000004 0.000001 -0.000000 0.000004 -0.000001 -0.000000 0.000000 -0.000002 -0.016662 0.078957 0.057696 -13.189918 4.978694 -37.029297 -0.176972 -0.020537 -0.095144 -7.482370 -8.082561 16.418945 12.890880 -22.885191 -142.527729 0.000002 0.000001 0.000004 -0.021773 -0.038278 0.012988 0.000002 0.000000 -0.000007 -0.000000 0.000000 -0.000005 0.000001 0.000000 -0.000003 -0.000004 0.000002 0.000007 0.009114 -0.002381 -0.024211 -0.000001 -0.000001 -0.000001 -0.000001 0.000003 0.000002 0.000001 0.000002 -0.000001 -0.032828 -0.025095 0.012286 0.000001 0.000000 -0.000004 0.000003 0.000002 -0.000001 -0.000001 0.000005 0.000000 -0.000005 0.000000 -0.000003 -0.039192 -0.011488 0.008390 0.000000 0.000001 -0.000000 -0.000002 0.000001 -0.000003 -0.000000 0.000002 -0.000000 0.000002 0.000002 0.000001 -0.043421 0.002443 0.002845 0.000002 0.000000 0.000000 -0.000003 0.000005 0.000001 0.000001 0.000000 0.000000 0.000004 -0.000001 -0.000000 -0.000000 0.000000 -0.000000 -2.106027 0.423236 -5.702641 76.342909 -0.663255 -11.947883 -26.475801 -0.180295 1.821413 0.000003 0.000001 0.000001 0.000002 -0.000001 -0.000001 0.000002 0.000001 -0.000001 -0.038000 -0.085200 0.016200 -0.000002 -0.000001 -0.000000 -0.000000 0.000000 -0.000000 -2.045843 0.417847 -4.468901 74.171982 -0.221731 0.993436 -24.063129 0.882497 -8.940439 -0.000002 -0.000001 -0.000001 0.000001 0.000000 0.000001 0.000003 0.000001 -0.000000 0.038000 -0.085200 0.016200 -0.000003 -0.000001 0.000001 
